P2
# by hand
20 10
8
2 2 2 2 2 2 2 2 2 2 5 5 5 5 5 5 5 5 5 5
2 2 2 2 2 2 2 2 2 2 5 5 5 5 5 5 5 5 5 5
2 2 2 2 2 2 2 2 2 2 5 5 5 5 5 5 5 5 5 5
2 2 2 2 2 2 2 2 2 2 5 5 5 5 5 5 5 5 5 5
2 2 2 2 2 2 2 2 2 2 5 5 5 5 5 5 5 5 5 5
2 2 2 2 2 2 2 2 2 2 5 5 5 5 5 5 5 5 5 5
2 2 2 2 2 2 2 2 2 2 5 5 5 5 5 5 5 5 5 5
2 2 2 2 2 2 2 2 2 2 5 5 5 5 5 5 5 5 5 5
2 2 2 2 2 2 2 2 2 2 5 5 5 5 5 5 5 5 5 5  
2 2 2 2 2 2 2 2 2 2 5 5 5 5 5 5 5 5 5 5                                
